<svg width="34" height="34" viewBox="0 0 34 34" fill="none" xmlns="http://www.w3.org/2000/svg">
<path d="M17 0C13.6377 0 10.3509 0.997032 7.55531 2.86502C4.75968 4.733 2.58074 7.38804 1.29406 10.4944C0.00736589 13.6007 -0.329291 17.0189 0.326658 20.3165C0.982606 23.6142 2.6017 26.6433 4.97919 29.0208C7.35668 31.3983 10.3858 33.0174 13.6835 33.6733C16.9811 34.3293 20.3993 33.9926 23.5056 32.7059C26.612 31.4193 29.267 29.2403 31.135 26.4447C33.003 23.6491 34 20.3623 34 17C33.9947 12.4929 32.2019 8.17202 29.0149 4.98506C25.828 1.79809 21.507 0.00531709 17 0ZM21.6364 9.27273C22.4895 9.27273 23.1818 10.3113 23.1818 11.5909C23.1818 12.8705 22.4895 13.9091 21.6364 13.9091C20.7833 13.9091 20.0909 12.8705 20.0909 11.5909C20.0909 10.3113 20.7833 9.27273 21.6364 9.27273ZM12.3636 9.27273C13.2167 9.27273 13.9091 10.3113 13.9091 11.5909C13.9091 12.8705 13.2167 13.9091 12.3636 13.9091C11.5105 13.9091 10.8182 12.8705 10.8182 11.5909C10.8182 10.3113 11.5105 9.27273 12.3636 9.27273ZM17 27.8182C14.4418 27.8251 11.9644 26.922 10.0109 25.2703C8.05729 23.6185 6.75485 21.3258 6.33637 18.802C6.29916 18.6004 6.30242 18.3934 6.34598 18.1931C6.38953 17.9928 6.4725 17.8031 6.59007 17.6352C6.70763 17.4672 6.85742 17.3244 7.03074 17.2149C7.20405 17.1054 7.39741 17.0315 7.59957 16.9974C7.80172 16.9634 8.00863 16.9699 8.20824 17.0166C8.40785 17.0633 8.59617 17.1493 8.76224 17.2695C8.92831 17.3897 9.06881 17.5417 9.17555 17.7167C9.2823 17.8917 9.35316 18.0862 9.384 18.2889C9.68658 20.0913 10.6182 21.7281 12.0134 22.9086C13.4086 24.0891 15.177 24.7369 17.0046 24.7369C18.8322 24.7369 20.6007 24.0891 21.9959 22.9086C23.3911 21.7281 24.3227 20.0913 24.6253 18.2889C24.6989 17.89 24.9265 17.536 25.2588 17.3034C25.5911 17.0707 26.0016 16.9781 26.4016 17.0454C26.8017 17.1128 27.1592 17.3347 27.397 17.6634C27.6349 17.992 27.734 18.401 27.6729 18.802C27.2542 21.3274 25.9504 23.6213 23.9949 25.2733C22.0394 26.9252 19.5598 27.8273 17 27.8182Z" fill="#EB4040"/>
</svg>
