<svg width="31" height="34" viewBox="0 0 31 34" fill="none" xmlns="http://www.w3.org/2000/svg">
<path d="M29.6522 28.5568C30.0096 28.5568 30.3525 28.4135 30.6052 28.1585C30.858 27.9035 31 27.5576 31 27.1969V1.35985C31 0.999192 30.858 0.65331 30.6052 0.39829C30.3525 0.143269 30.0096 0 29.6522 0H1.34783C0.99036 0 0.647536 0.143269 0.394769 0.39829C0.142003 0.65331 0 0.999192 0 1.35985V29.9166C0.0524591 31.0482 0.547066 32.1127 1.37559 32.8773C2.20411 33.6418 3.29907 34.0441 4.42087 33.9962H29.6522C30.0096 33.9962 30.3525 33.8529 30.6052 33.5979C30.858 33.3428 31 32.997 31 32.6363C31 32.2757 30.858 31.9298 30.6052 31.6747C30.3525 31.4197 30.0096 31.2765 29.6522 31.2765H28.3043V28.5568H29.6522ZM16.1739 5.43938C16.1739 5.07873 16.3159 4.73285 16.5687 4.47783C16.8214 4.22281 17.1643 4.07954 17.5217 4.07954C17.8792 4.07954 18.222 4.22281 18.4748 4.47783C18.7276 4.73285 18.8696 5.07873 18.8696 5.43938V11.2867C18.8696 11.6811 19.4357 12.1162 20.2174 12.1978V5.43938C20.2174 5.07873 20.3594 4.73285 20.6122 4.47783C20.8649 4.22281 21.2078 4.07954 21.5652 4.07954C21.9227 4.07954 22.2655 4.22281 22.5183 4.47783C22.771 4.73285 22.913 5.07873 22.913 5.43938V12.2386C23.6948 12.157 24.2609 11.7219 24.2609 11.3275V5.43938C24.2609 5.07873 24.4029 4.73285 24.6556 4.47783C24.9084 4.22281 25.2512 4.07954 25.6087 4.07954C25.9662 4.07954 26.309 4.22281 26.5618 4.47783C26.8145 4.73285 26.9565 5.07873 26.9565 5.43938V11.2867C26.8774 12.305 26.4138 13.2537 25.6613 13.9369C24.9088 14.6202 23.925 14.9858 22.913 14.9583V23.1174C22.913 23.478 22.771 23.8239 22.5183 24.0789C22.2655 24.334 21.9227 24.4772 21.5652 24.4772C21.2078 24.4772 20.8649 24.334 20.6122 24.0789C20.3594 23.8239 20.2174 23.478 20.2174 23.1174V14.9583C19.2097 14.9863 18.2296 14.6244 17.4778 13.9468C16.726 13.2693 16.2595 12.3273 16.1739 11.3139V5.43938ZM9.43478 4.07954C12.6022 4.07954 14.8261 8.73021 14.8261 11.2595C14.777 12.3861 14.3502 13.4624 13.6156 14.3123C12.881 15.1622 11.8822 15.7351 10.7826 15.9374V23.1174C10.7826 23.478 10.6406 23.8239 10.3878 24.0789C10.1351 24.334 9.79225 24.4772 9.43478 24.4772C9.07732 24.4772 8.73449 24.334 8.48173 24.0789C8.22896 23.8239 8.08696 23.478 8.08696 23.1174V15.9374C6.98741 15.7351 5.98853 15.1622 5.25392 14.3123C4.51932 13.4624 4.09254 12.3861 4.04348 11.2595C4.04348 8.73021 6.26739 4.07954 9.43478 4.07954ZM25.6087 31.2765H4.42087C4.01606 31.3125 3.61278 31.1921 3.29254 30.9397C2.9723 30.6873 2.75897 30.3216 2.69565 29.9166C2.75897 29.5116 2.9723 29.146 3.29254 28.8935C3.61278 28.6411 4.01606 28.5208 4.42087 28.5568H25.6087V31.2765Z" fill="#EB4040"/>
</svg>
