<svg width="935" height="276" viewBox="0 0 935 276" fill="none" xmlns="http://www.w3.org/2000/svg">
<circle cx="11" cy="11" r="11" fill="#F8F6F2"/>
<circle cx="11" cy="11" r="4" fill="#EB4040"/>
<circle cx="336" cy="75" r="11" fill="#F8F6F2"/>
<circle cx="336" cy="75" r="4" fill="#EB4040"/>
<circle cx="630" cy="135" r="11" fill="#F8F6F2"/>
<circle cx="630" cy="135" r="4" fill="#EB4040"/>
<circle cx="924" cy="265" r="11" fill="#F8F6F2"/>
<circle cx="924" cy="265" r="4" fill="#EB4040"/>
<path d="M13.5 12.5L55.3546 28.9289C63.088 31.9645 71.1697 34.0245 79.4126 35.0613L146.5 43.5L322.341 71.0642C328.434 72.0194 334.425 73.5361 340.239 75.5951L414.635 101.944C423.172 104.967 432.08 106.817 441.116 107.442L560.977 115.737C568.304 116.244 575.551 117.557 582.59 119.651L632.5 134.5L812.823 184.291C826.453 188.054 839.129 194.665 850.016 203.687L924 265" stroke="#EB4040"/>
</svg>
