<svg width="9" height="16" viewBox="0 0 9 16" fill="none" xmlns="http://www.w3.org/2000/svg">
<path d="M4 9.6H3.14632C1.73137 9.6 1.02389 9.6 0.729233 9.13645C0.434574 8.67291 0.734852 8.03232 1.33541 6.75113L3.54727 2.03249C3.92156 1.234 4.10871 0.834754 4.30435 0.878334C4.5 0.921913 4.5 1.36284 4.5 2.24471V5.9C4.5 6.1357 4.5 6.25355 4.57322 6.32678C4.64645 6.4 4.7643 6.4 5 6.4H5.85368C7.26863 6.4 7.97611 6.4 8.27077 6.86355C8.56543 7.32709 8.26515 7.96768 7.66459 9.24887L5.45273 13.9675C5.07844 14.766 4.89129 15.1652 4.69565 15.1217C4.5 15.0781 4.5 14.6372 4.5 13.7553V10.1C4.5 9.8643 4.5 9.74645 4.42678 9.67322C4.35355 9.6 4.2357 9.6 4 9.6Z" fill="#EB4040"/>
</svg>
