<svg width="145" height="26" viewBox="0 0 145 26" fill="none" xmlns="http://www.w3.org/2000/svg">
<path d="M7.482 20.7669C6.00868 20.7669 4.59748 20.565 3.24841 20.161C1.89935 19.7571 0.816541 19.2429 0 18.6186L1.75734 15.1758C2.60938 15.8185 3.56793 16.3143 4.63298 16.6631C5.69804 17.012 6.78972 17.1864 7.90802 17.1864C9.09733 17.1864 10.0381 16.9845 10.7304 16.5805C11.4227 16.1766 11.7688 15.6257 11.7688 14.928C11.7688 14.3588 11.4937 13.9273 10.9434 13.6335C10.3932 13.3213 9.51448 12.9908 8.30742 12.6419C7.10036 12.2747 6.11518 11.9258 5.3519 11.5953C4.58861 11.2465 3.92295 10.7323 3.35492 10.053C2.80464 9.37359 2.5295 8.47387 2.5295 7.35381C2.5295 6.05014 2.87565 4.90254 3.56793 3.91102C4.27797 2.91949 5.27202 2.15749 6.55008 1.625C7.8459 1.09251 9.34585 0.826272 11.0499 0.826272C12.3102 0.826272 13.4996 0.973164 14.6179 1.26695C15.7362 1.54237 16.6947 1.94633 17.4935 2.47881L15.8693 5.89407C15.177 5.39831 14.396 5.03107 13.5262 4.79237C12.6564 4.53531 11.7511 4.40678 10.8103 4.40678C9.58549 4.40678 8.61806 4.62712 7.90802 5.0678C7.19799 5.50847 6.84297 6.07768 6.84297 6.77542C6.84297 7.19774 6.99385 7.55579 7.29562 7.84958C7.59738 8.125 7.97903 8.35452 8.44055 8.53814C8.90207 8.70339 9.54998 8.90537 10.3843 9.14407C11.5736 9.47458 12.5499 9.81427 13.3132 10.1631C14.0765 10.4936 14.7244 10.9894 15.2569 11.6504C15.8072 12.2931 16.0823 13.1469 16.0823 14.2119C16.0823 15.5339 15.7273 16.6907 15.0173 17.6822C14.3072 18.6554 13.3043 19.4174 12.0085 19.9682C10.7127 20.5007 9.20384 20.7669 7.482 20.7669Z" fill="url(#paint0_linear_116_1493)"/>
<path d="M33.6476 5.61864L30.7986 20.4364H26.8579L27.1508 18.839C26.5295 19.4449 25.8194 19.904 25.0207 20.2161C24.2219 20.5099 23.3787 20.6568 22.4911 20.6568C20.9291 20.6568 19.6776 20.2161 18.7368 19.3347C17.8138 18.4534 17.3523 17.214 17.3523 15.6165C17.3523 15.0106 17.4144 14.4138 17.5386 13.8263L19.1096 5.61864H23.2633L21.7456 13.5508C21.6746 13.8997 21.6391 14.2578 21.6391 14.625C21.6391 16.1674 22.4379 16.9386 24.0355 16.9386C25.0828 16.9386 25.9437 16.6264 26.6182 16.0021C27.3105 15.3595 27.7809 14.4047 28.0294 13.1377L29.4939 5.61864H33.6476Z" fill="url(#paint1_linear_116_1493)"/>
<path d="M44.2056 5.39831C45.3239 5.39831 46.3534 5.66455 47.2942 6.19703C48.2528 6.72952 49.0072 7.50071 49.5575 8.51059C50.1255 9.50212 50.4095 10.6773 50.4095 12.036C50.4095 13.6702 50.0545 15.1483 49.3444 16.4703C48.6522 17.774 47.7025 18.8023 46.4954 19.5551C45.2884 20.2895 43.9482 20.6568 42.4748 20.6568C40.2915 20.6568 38.7472 19.9223 37.8419 18.4534L36.4307 25.7797H32.277L36.1644 5.61864H40.1051L39.8122 7.07839C41.0015 5.95833 42.466 5.39831 44.2056 5.39831ZM41.9956 17.1038C42.8121 17.1038 43.5399 16.9018 44.1789 16.4979C44.818 16.0756 45.315 15.4972 45.67 14.7627C46.025 14.0282 46.2025 13.1836 46.2025 12.2288C46.2025 11.2189 45.9096 10.4202 45.3239 9.83263C44.7558 9.24506 43.957 8.95127 42.9275 8.95127C42.1287 8.95127 41.4098 9.16243 40.7708 9.58475C40.1317 9.9887 39.6347 10.5579 39.2797 11.2924C38.9247 12.0268 38.7472 12.8715 38.7472 13.8263C38.7472 14.8362 39.0312 15.6349 39.5992 16.2225C40.1672 16.81 40.966 17.1038 41.9956 17.1038Z" fill="url(#paint2_linear_116_1493)"/>
<path d="M65.9175 11.9258C65.9175 12.6052 65.8376 13.3581 65.6778 14.1843H54.7078C54.8498 16.2041 56.0835 17.214 58.4088 17.214C59.1366 17.214 59.8289 17.0946 60.4857 16.8559C61.1602 16.6172 61.746 16.2775 62.243 15.8369L63.9738 18.6737C63.175 19.3347 62.2608 19.8305 61.2312 20.161C60.2017 20.4915 59.1189 20.6568 57.9828 20.6568C56.5095 20.6568 55.2137 20.3905 54.0954 19.858C52.9948 19.3072 52.1428 18.5268 51.5392 17.5169C50.9535 16.5071 50.6606 15.3411 50.6606 14.0191C50.6606 12.3849 51.0156 10.916 51.7256 9.61229C52.4534 8.29025 53.4563 7.26201 54.7344 6.52754C56.0125 5.77472 57.468 5.39831 59.1011 5.39831C60.4857 5.39831 61.6839 5.66455 62.6957 6.19703C63.7252 6.72952 64.5152 7.49153 65.0654 8.48305C65.6335 9.47458 65.9175 10.6222 65.9175 11.9258ZM58.9147 8.62076C57.9384 8.62076 57.113 8.89619 56.4385 9.44703C55.764 9.97952 55.2847 10.7232 55.0007 11.678H62.1099C62.1099 10.7232 61.817 9.97952 61.2312 9.44703C60.6632 8.89619 59.891 8.62076 58.9147 8.62076Z" fill="url(#paint3_linear_116_1493)"/>
<path d="M72.1994 7.38136C72.8207 6.68362 73.5662 6.17867 74.436 5.86652C75.3236 5.55438 76.362 5.39831 77.5513 5.39831L76.8058 9.36441C76.3087 9.32768 75.9892 9.30932 75.8472 9.30932C74.5869 9.30932 73.5751 9.63065 72.8118 10.2733C72.0663 10.916 71.5604 11.9167 71.2941 13.2754L69.9095 20.4364H65.7558L68.6049 5.61864H72.5456L72.1994 7.38136Z" fill="url(#paint4_linear_116_1493)"/>
<path d="M91.6321 10.4936C92.4309 10.8242 93.0433 11.3199 93.4693 11.9809C93.9131 12.6236 94.1349 13.4131 94.1349 14.3496C94.1349 16.351 93.3717 17.8658 91.8451 18.8941C90.3185 19.9223 88.286 20.4364 85.7477 20.4364H75.9758L79.7035 1.15678H88.7032C90.709 1.15678 92.2534 1.54237 93.3362 2.31356C94.419 3.06638 94.9604 4.14972 94.9604 5.56356C94.9604 6.7387 94.6586 7.74859 94.0551 8.59322C93.4693 9.41949 92.6616 10.053 91.6321 10.4936ZM83.3247 4.51695L82.446 9.06144H86.8393C87.9754 9.06144 88.8541 8.83192 89.4753 8.37288C90.1144 7.89548 90.4339 7.2161 90.4339 6.33475C90.4339 5.12288 89.5197 4.51695 87.6914 4.51695H83.3247ZM86.0139 17.0763C87.221 17.0763 88.1618 16.8376 88.8363 16.3602C89.5108 15.8828 89.8481 15.1942 89.8481 14.2945C89.8481 12.9725 88.9162 12.3114 87.0523 12.3114H81.8336L80.9283 17.0763H86.0139Z" fill="url(#paint5_linear_116_1493)"/>
<path d="M102.22 20.6568C100.782 20.6568 99.513 20.3814 98.4124 19.8305C97.3296 19.2797 96.4865 18.5085 95.8829 17.5169C95.2971 16.5071 95.0043 15.3411 95.0043 14.0191C95.0043 12.3849 95.377 10.916 96.1226 9.61229C96.8681 8.30862 97.8977 7.28037 99.2112 6.52754C100.525 5.77472 102.007 5.39831 103.658 5.39831C105.113 5.39831 106.383 5.67373 107.465 6.22458C108.548 6.77542 109.382 7.55579 109.968 8.56568C110.572 9.5572 110.874 10.714 110.874 12.036C110.874 13.6702 110.501 15.1391 109.755 16.4428C109.027 17.7465 107.998 18.7747 106.667 19.5275C105.353 20.2804 103.871 20.6568 102.22 20.6568ZM102.486 17.1038C103.285 17.1038 104.004 16.9018 104.643 16.4979C105.282 16.0756 105.779 15.4972 106.134 14.7627C106.489 14.0282 106.667 13.1836 106.667 12.2288C106.667 11.2189 106.383 10.4202 105.815 9.83263C105.247 9.24506 104.448 8.95127 103.418 8.95127C102.602 8.95127 101.874 9.16243 101.235 9.58475C100.596 9.9887 100.099 10.5579 99.7438 11.2924C99.3887 12.0268 99.2112 12.8715 99.2112 13.8263C99.2112 14.8362 99.4952 15.6349 100.063 16.2225C100.649 16.81 101.457 17.1038 102.486 17.1038Z" fill="url(#paint6_linear_116_1493)"/>
<path d="M129.334 0L125.393 20.4364H121.452L121.745 18.9492C120.538 20.0876 119.074 20.6568 117.352 20.6568C116.233 20.6568 115.204 20.3905 114.263 19.858C113.322 19.3256 112.568 18.5636 112 17.572C111.449 16.5621 111.174 15.3778 111.174 14.0191C111.174 12.3849 111.52 10.916 112.213 9.61229C112.923 8.29025 113.881 7.26201 115.088 6.52754C116.295 5.77472 117.627 5.39831 119.082 5.39831C120.13 5.39831 121.044 5.58192 121.825 5.94915C122.624 6.31638 123.254 6.85805 123.715 7.57415L125.18 0H129.334ZM118.63 17.1038C119.446 17.1038 120.174 16.9018 120.813 16.4979C121.452 16.0756 121.949 15.4972 122.304 14.7627C122.659 14.0282 122.837 13.1836 122.837 12.2288C122.837 11.2189 122.544 10.4202 121.958 9.83263C121.39 9.24506 120.591 8.95127 119.562 8.95127C118.745 8.95127 118.017 9.16243 117.378 9.58475C116.739 9.9887 116.242 10.5579 115.887 11.2924C115.532 12.0268 115.355 12.8715 115.355 13.8263C115.355 14.8362 115.639 15.6349 116.207 16.2225C116.793 16.81 117.6 17.1038 118.63 17.1038Z" fill="url(#paint7_linear_116_1493)"/>
<path d="M145 5.61864L135.468 21.428C134.438 23.154 133.435 24.3475 132.459 25.0085C131.5 25.6695 130.32 26 128.918 26C128.172 26 127.444 25.8806 126.734 25.6419C126.007 25.4032 125.439 25.0911 125.03 24.7055L126.947 21.6208C127.586 22.2267 128.35 22.5297 129.237 22.5297C129.77 22.5297 130.231 22.3919 130.622 22.1165C131.012 21.8411 131.412 21.3729 131.82 20.7119L131.953 20.464L128.651 5.61864H132.805L134.935 15.6992L140.9 5.61864H145Z" fill="url(#paint8_linear_116_1493)"/>
<defs>
<linearGradient id="paint0_linear_116_1493" x1="4.52268" y1="26" x2="146.919" y2="26" gradientUnits="userSpaceOnUse">
<stop offset="0.125" stop-color="#EB4040"/>
<stop offset="0.239583" stop-color="#FF9878"/>
<stop offset="0.395833" stop-color="#EB4040"/>
</linearGradient>
<linearGradient id="paint1_linear_116_1493" x1="4.52268" y1="26" x2="146.919" y2="26" gradientUnits="userSpaceOnUse">
<stop offset="0.125" stop-color="#EB4040"/>
<stop offset="0.239583" stop-color="#FF9878"/>
<stop offset="0.395833" stop-color="#EB4040"/>
</linearGradient>
<linearGradient id="paint2_linear_116_1493" x1="4.52268" y1="26" x2="146.919" y2="26" gradientUnits="userSpaceOnUse">
<stop offset="0.125" stop-color="#EB4040"/>
<stop offset="0.239583" stop-color="#FF9878"/>
<stop offset="0.395833" stop-color="#EB4040"/>
</linearGradient>
<linearGradient id="paint3_linear_116_1493" x1="4.52268" y1="26" x2="146.919" y2="26" gradientUnits="userSpaceOnUse">
<stop offset="0.125" stop-color="#EB4040"/>
<stop offset="0.239583" stop-color="#FF9878"/>
<stop offset="0.395833" stop-color="#EB4040"/>
</linearGradient>
<linearGradient id="paint4_linear_116_1493" x1="4.52268" y1="26" x2="146.919" y2="26" gradientUnits="userSpaceOnUse">
<stop offset="0.125" stop-color="#EB4040"/>
<stop offset="0.239583" stop-color="#FF9878"/>
<stop offset="0.395833" stop-color="#EB4040"/>
</linearGradient>
<linearGradient id="paint5_linear_116_1493" x1="4.52268" y1="26" x2="146.919" y2="26" gradientUnits="userSpaceOnUse">
<stop offset="0.125" stop-color="#EB4040"/>
<stop offset="0.239583" stop-color="#FF9878"/>
<stop offset="0.395833" stop-color="#EB4040"/>
</linearGradient>
<linearGradient id="paint6_linear_116_1493" x1="4.52268" y1="26" x2="146.919" y2="26" gradientUnits="userSpaceOnUse">
<stop offset="0.125" stop-color="#EB4040"/>
<stop offset="0.239583" stop-color="#FF9878"/>
<stop offset="0.395833" stop-color="#EB4040"/>
</linearGradient>
<linearGradient id="paint7_linear_116_1493" x1="4.52268" y1="26" x2="146.919" y2="26" gradientUnits="userSpaceOnUse">
<stop offset="0.125" stop-color="#EB4040"/>
<stop offset="0.239583" stop-color="#FF9878"/>
<stop offset="0.395833" stop-color="#EB4040"/>
</linearGradient>
<linearGradient id="paint8_linear_116_1493" x1="4.52268" y1="26" x2="146.919" y2="26" gradientUnits="userSpaceOnUse">
<stop offset="0.125" stop-color="#EB4040"/>
<stop offset="0.239583" stop-color="#FF9878"/>
<stop offset="0.395833" stop-color="#EB4040"/>
</linearGradient>
</defs>
</svg>
