<svg width="13" height="23" viewBox="0 0 13 23" fill="none" xmlns="http://www.w3.org/2000/svg">
<path d="M6.5 0C4.77667 0.0019532 3.12447 0.709349 1.9059 1.96698C0.68732 3.22462 0.00189254 4.92977 0 6.70833V16.2917C2.56882e-08 18.0708 0.68482 19.7771 1.90381 21.0352C3.12279 22.2932 4.77609 23 6.5 23C8.22391 23 9.87721 22.2932 11.0962 21.0352C12.3152 19.7771 13 18.0708 13 16.2917V6.70833C12.9981 4.92977 12.3127 3.22462 11.0941 1.96698C9.87553 0.709349 8.22333 0.0019532 6.5 0ZM11.1429 16.2917C11.1429 17.5625 10.6537 18.7813 9.783 19.6799C8.91229 20.5785 7.73136 21.0833 6.5 21.0833C5.26864 21.0833 4.08771 20.5785 3.217 19.6799C2.3463 18.7813 1.85714 17.5625 1.85714 16.2917V12.4583H11.1429V16.2917Z" fill="#6F544C"/>
</svg>
