<svg width="20" height="22" viewBox="0 0 20 22" fill="none" xmlns="http://www.w3.org/2000/svg">
<path d="M19.7884 2.89231C19.5862 2.77319 19.3278 2.84387 19.211 3.05048L16.6481 7.57859C16.517 7.81029 16.2268 7.88923 16.0005 7.75614C15.7734 7.62191 15.6954 7.32581 15.8265 7.09498L18.3894 2.56686C18.5182 2.33916 18.4419 2.04819 18.2187 1.91681C17.9955 1.78486 17.7099 1.86295 17.5812 2.09037L15.0182 6.61905C14.8875 6.85017 14.5972 6.92968 14.3707 6.79603C14.1435 6.66237 14.0662 6.36627 14.1969 6.13486L16.7598 1.60675C16.8886 1.37905 16.8123 1.08808 16.5891 0.956701C16.3659 0.825323 16.0804 0.903124 15.9516 1.13083L13.3887 5.65894C13.258 5.89006 12.9683 5.97014 12.7408 5.83592C12.514 5.70226 12.4363 5.40616 12.5671 5.17532L15.13 0.646638C15.2468 0.440594 15.1775 0.176984 14.9752 0.0578606C14.7732 -0.0612628 14.5148 0.00941339 14.3981 0.216027L11.1468 5.95817C10.4045 7.27024 10.6582 8.88582 11.6642 9.9052L5.063 20.186C4.80403 20.6434 5.52536 21.5631 5.89049 21.7785C6.25562 21.9934 7.39684 22.1709 7.65581 21.7132L13.0833 10.7408C14.4517 11.1198 15.9505 10.5359 16.6928 9.22466L19.9432 3.48166C20.06 3.27533 19.991 3.01201 19.7884 2.89231Z" fill="#6F544C"/>
<path d="M7.37644 15.5422L8.52967 13.7462L1.09068 0.602465C-2.57349 2.76094 4.16931 15.5821 4.16931 15.5821L6.5917 14.1555L7.37644 15.5422Z" fill="#6F544C"/>
<path d="M10.5 17.2276L9.48818 19.2732L10.7601 21.5206C11.0199 21.9786 11.594 22.1362 12.0435 21.8717C12.493 21.6067 12.647 21.0207 12.3872 20.5619L10.5 17.2276Z" fill="#6F544C"/>
</svg>
