<svg width="21" height="19" viewBox="0 0 21 19" fill="none" xmlns="http://www.w3.org/2000/svg">
<path d="M20.6107 3.49304C19.8162 1.42897 18.0734 0.10585 15.9718 0C15.8693 0 15.7412 0 15.6387 0C13.819 0 12.1275 0.740947 10.8716 2.09053C10.6666 2.30223 10.3334 2.30223 10.1284 2.09053C8.87254 0.740947 7.15538 0 5.36134 0C5.25882 0 5.13068 0 5.02816 0C2.90093 0.10585 1.15814 1.42897 0.389267 3.49304C-0.40524 5.61003 0.0304572 7.93872 1.56821 9.55292L10.4872 19L19.4318 9.55292C20.9695 7.93872 21.4052 5.61003 20.6107 3.49304ZM14.4853 9.9234C13.9471 10.6643 13.332 11.273 12.6657 11.6435C11.9993 12.0404 11.2561 12.2521 10.4872 12.2521C8.94943 12.2521 7.53982 11.4318 6.48902 9.9234C6.30962 9.68524 6.36088 9.36769 6.61717 9.18245C6.84783 8.99721 7.15538 9.05014 7.33479 9.2883C7.41168 9.39415 7.48856 9.5 7.56545 9.60585C8.38559 10.6379 9.41076 11.1936 10.5128 11.1936C11.6149 11.1936 12.6144 10.6379 13.4602 9.60585C13.5371 9.5 13.614 9.39415 13.6908 9.2883C13.8702 9.05014 14.1778 8.99721 14.4085 9.18245C14.6135 9.36769 14.6648 9.68524 14.4853 9.9234Z" fill="#6F544C"/>
</svg>
