<svg width="21" height="23" viewBox="0 0 21 23" fill="none" xmlns="http://www.w3.org/2000/svg">
<path fill-rule="evenodd" clip-rule="evenodd" d="M13.1311 21.4718C13.5089 22.2389 15.7762 23.773 16.8153 22.3348C21.1608 16.2943 21.9166 11.9797 20.0272 9.29502C19.177 8.04858 17.76 7.28153 16.154 6.80213C17.9489 6.03509 19.177 3.92571 19.177 0.953417C16.9098 1.62458 14.9259 2.77515 14.0757 4.30924C13.9813 2.77515 13.2255 1.14518 12.6587 0.378134C11.9974 -0.580671 10.5804 0.474015 11.2417 1.43282C12.6587 3.06279 13.1311 4.9804 13.2255 6.41861C10.3915 6.32273 7.55744 7.18565 6.14042 9.10326C5.19574 10.4456 4.81787 11.8838 5.47914 14.1849L10.5804 10.3497C14.1702 15.3355 11.5251 20.8007 9.06893 21.7595C10.297 23.5812 12.3753 23.2936 13.2255 21.5677L13.1311 21.4718ZM0 19.0748C2.0783 22.0471 6.14042 22.7183 8.87999 20.7048C11.6196 18.6913 12.1864 14.5685 10.1081 11.5962L4.81787 15.5273C5.95148 17.2531 3.40085 18.7872 1.70042 17.8284L0.094468 19.0748H0ZM7.17957 16.7737C7.17957 17.4449 5.95148 17.5407 5.47914 16.7737C5.85702 16.0067 7.17957 16.1025 7.17957 16.7737ZM16.8153 10.1579C16.154 9.19914 17.571 8.24034 18.2323 9.10326C19.0825 10.3497 20.594 13.7055 18.7047 15.8149C18.8936 14.2808 18.5157 12.0756 16.8153 10.0621V10.1579Z" fill="#6F544C"/>
</svg>
